:SAMPLES-PER-SECOND 30
:FULLY-SPECIFIED
:DEGREES
173
root  0.420617 39.0662 -31.8876 -98.0104 -87.3842 99.5352
RightUpLeg  -15.9859 -23.4943 -10.7566
RightLeg  25.0825 -11.384 -5.98843
RightFoot  -1.19466 -1.09432 12.1795
RightToes  -1.33073e-015 0 -3.6325e-017
Spine  20.5079 0.934613 -4.69674
Spine1  -17.0208 0.28347 0.49992
HEad  -6.88092 9.99465 -4.46504
LeftShoulder1  1.50519 -1.83131 -22.0676
LeftArm  -51.2397 11.7226 -26.4347
LeftForeArm  72.8323 -77.3431 -112.386
LeftHand  -0.247056 4.59032 36.1495
RightShoulder  1.21642 0.917457 21.3132
RightArm  -61.954 -19.9956 30.7187
RightForeArm  61.4554 78.2633 97.9096
RightHand  -3.25957 11.8606 -21.808
LeftUpLeg  -20.0278 27.1273 7.17937
LeftLeg  40.7501 11.415 10.6773
LeftFoot  -4.04962 0.849536 -13.1383
LeftToes  -4.0021e-011 8.38769e-011 -3.99229e-011
174
root  0.36963 39.1203 -32.1057 -84.5754 -87.8448 86.1644
RightUpLeg  -16.3129 -22.9413 -9.92573
RightLeg  25.884 -12.6999 -6.84753
RightFoot  -0.26164 -1.18102 12.1164
RightToes  -1.33073e-015 0 -3.6325e-017
Spine  20.8215 0.672853 -3.16019
Spine1  -17.4807 0.30471 -1.05917
HEad  -6.55104 8.67553 -3.84007
LeftShoulder1  1.27848 -1.52039 -18.7357
LeftArm  -50.0461 10.8191 -29.1298
LeftForeArm  72.3244 -77.126 -113.858
LeftHand  -0.258781 4.53136 35.2117
RightShoulder  0.946527 0.310272 18.3357
RightArm  -62.6645 -20.6777 32.0412
RightForeArm  66.2781 78.0866 102.579
RightHand  -3.49699 14.5115 -20.5012
LeftUpLeg  -23.3021 30.2581 4.22502
LeftLeg  46.9553 7.13755 8.5414
LeftFoot  -8.99485 0.384671 -15.814
LeftToes  -4.0021e-011 8.38769e-011 -3.99229e-011
175
root  0.517812 38.6188 -32.293 -65.5572 -88.469 67.0085
RightUpLeg  -19.0095 -23.1022 -8.93705
RightLeg  31.3173 -12.0947 -8.04684
RightFoot  -2.30664 -1.017 12.6577
RightToes  -1.33073e-015 0 -3.6325e-017
Spine  22.5165 0.204974 -0.958849
Spine1  -17.773 0.219228 -2.87536
HEad  -8.10407 7.57703 -3.89104
LeftShoulder1  0.5456 0.669834 -11.8292
LeftArm  -50.2911 6.35169 -29.722
LeftForeArm  78.1582 -76.6791 -118.484
LeftHand  -0.259571 4.51878 34.78
RightShoulder  0.47055 -1.16575 13.041
RightArm  -64.3634 -18.5543 30.6017
RightForeArm  67.5922 77.7314 107.229
RightHand  -3.6727 12.8822 -23.3892
LeftUpLeg  -27.4062 32.1379 1.56417
LeftLeg  54.2511 4.83479 7.73579
LeftFoot  -12.2956 -0.0582583 -16.1369
LeftToes  -4.0021e-011 8.38769e-011 -3.99229e-011
176
root  0.765542 37.5837 -32.5362 -65.6916 -89.398 66.2165
RightUpLeg  -22.6419 -23.1236 -7.94508
RightLeg  39.9599 -10.1992 -9.29302
RightFoot  -6.46379 -0.597942 12.888
RightToes  -1.33073e-015 0 -3.6325e-017
Spine  25.4763 -0.0290967 0.647342
Spine1  -18.2729 0.282587 -3.47051
HEad  -9.92753 6.87669 -4.39536
LeftShoulder1  -0.014935 3.63159 -4.39214
LeftArm  -53.2727 -0.567923 -25.609
LeftForeArm  73.9427 -77.1369 -114.285
LeftHand  -0.282923 4.43445 34.4394
RightShoulder  0.0125404 -3.43863 6.33666
RightArm  -67.2513 -14.1502 26.4356
RightForeArm  49.9633 78.0316 94.9901
RightHand  -3.60295 10.1057 -26.8278
LeftUpLeg  -31.0442 33.3129 0.116029
LeftLeg  61.0029 4.08427 8.577
LeftFoot  -12.6986 -0.103245 -14.8498
LeftToes  -4.0021e-011 8.38769e-011 -3.99229e-011
177
root  1.07557 36.0351 -32.8582 54.5433 -88.6678 -55.414
RightUpLeg  -26.88 -22.8965 -6.10002
RightLeg  50.15 -8.12328 -10.6496
RightFoot  -11.2641 -0.0896205 11.808
RightToes  -1.33073e-015 0 -3.6325e-017
Spine  29.3577 0.200996 1.64567
Spine1  -19.8216 0.695534 -2.2342
HEad  -11.2773 6.33302 -4.98126
LeftShoulder1  -0.129977 6.04993 3.9777
LeftArm  -59.0028 -6.45887 -18.7015
LeftForeArm  51.7571 -78.1047 -94.8669
LeftHand  -0.261669 4.51207 34.7696
RightShoulder  -0.160209 -5.55628 -0.980972
RightArm  -71.3143 -9.37777 19.9619
RightForeArm  14.8306 76.8721 68.2776
RightHand  -3.02095 6.36289 -29.6062
LeftUpLeg  -34.2336 33.6014 0.557088
LeftLeg  67.2091 3.50827 9.90491
LeftFoot  -12.379 -0.0530427 -13.8386
LeftToes  -4.0021e-011 8.38769e-011 -3.99229e-011
178
root  1.42704 34.1833 -33.1725 88.6346 -86.4677 -89.9219
RightUpLeg  -32.4306 -23.1144 -2.79344
RightLeg  59.9799 -6.26651 -12.0544
RightFoot  -15.8849 0.293646 10.0833
RightToes  -1.33073e-015 0 -3.6325e-017
Spine  32.8071 0.562992 2.77021
Spine1  -21.3072 1.33018 -0.140546
HEad  -14.1013 5.91842 -5.79967
LeftShoulder1  0.137012 7.80815 13.2839
LeftArm  -66.2756 -8.50288 -11.3231
LeftForeArm  12.1388 -75.9272 -59.1915
LeftHand  -0.16619 4.83735 35.9022
RightShoulder  -0.0689264 -6.63043 -7.20219
RightArm  -76.1293 -5.2255 10.6783
RightForeArm  -19.8481 72.1225 42.8667
RightHand  -2.29357 2.18427 -34.2447
LeftUpLeg  -38.0521 32.7483 1.87877
LeftLeg  73.0199 2.87544 11.6612
LeftFoot  -15.2894 -0.350756 -12.9414
LeftToes  -4.0021e-011 8.38769e-011 -3.99229e-011
179
root  1.75959 32.4779 -33.3885 92.6704 -84.2126 -92.9561
RightUpLeg  -38.6581 -23.9055 0.911217
RightLeg  67.778 -4.50704 -12.6802
RightFoot  -19.8392 0.558471 9.26339
RightToes  -1.33073e-015 0 -3.6325e-017
Spine  34.6804 0.749907 3.9421
Spine1  -20.5528 1.86488 1.43345
HEad  -19.9823 5.59519 -7.05429
LeftShoulder1  0.648327 9.87801 21.1602
LeftArm  -73.0223 -7.226 -4.31125
LeftForeArm  -20.1637 -67.0452 -30.7869
LeftHand  0.079061 5.58333 37.6506
RightShoulder  0.0625504 -7.27202 -11.4235
RightArm  -80.6017 -5.2234 3.60514
RightForeArm  -37.1586 66.6845 31.0619
RightHand  -2.28417 0.87207 -40.7717
LeftUpLeg  -42.1275 31.2947 2.63754
LeftLeg  77.642 2.45463 14.6235
LeftFoot  -22.5858 -0.966204 -11.2491
LeftToes  -4.0021e-011 8.38769e-011 -3.99229e-011
180
root  1.95367 31.3749 -33.4957 93.7635 -83.0163 -93.0932
RightUpLeg  -42.8704 -24.9252 3.02101
RightLeg  72.6075 -3.09763 -12.0202
RightFoot  -22.4221 0.778196 9.57254
RightToes  -1.33073e-015 0 -3.6325e-017
Spine  35.1118 0.818217 4.53696
Spine1  -17.5403 2.1257 2.09733
HEad  -26.1016 5.29949 -8.01009
LeftShoulder1  1.27067 12.2951 26.0355
LeftArm  -77.6191 -4.97776 -1.01399
LeftForeArm  -32.8565 -58.3869 -20.6474
LeftHand  0.522737 6.82577 39.4227
RightShoulder  0.181366 -8.03141 -14.1445
RightArm  -83.8613 -6.34793 -0.489622
RightForeArm  -44.8934 63.3775 26.5067
RightHand  -2.17266 -0.17348 -46.4172
LeftUpLeg  -44.3337 29.835 2.69395
LeftLeg  80.0879 2.30402 17.8557
LeftFoot  -30.5074 -1.4757 -9.75594
LeftToes  -4.0021e-011 8.38769e-011 -3.99229e-011
181
root  1.89812 31.1711 -33.5199 90.7173 -83.2388 -90.5312
RightUpLeg  -42.7104 -26.0526 2.39032
RightLeg  73.7883 -2.51496 -10.8568
RightFoot  -23.0516 0.864889 9.94462
RightToes  -1.33073e-015 0 -3.6325e-017
Spine  34.5982 0.927877 4.22901
Spine1  -14.7991 2.13185 2.17392
HEad  -27.5017 5.3917 -7.56885
LeftShoulder1  1.59753 13.4426 27.8137
LeftArm  -79.7183 -4.19515 -4.87048
LeftForeArm  -31.0904 -59.634 -22.2234
LeftHand  0.808823 7.56651 40.4644
RightShoulder  0.213233 -8.09216 -14.8518
RightArm  -83.7267 -8.50187 0.76578
RightForeArm  -46.2463 65.5388 29.6603
RightHand  -1.70585 -1.95955 -53.8111
LeftUpLeg  -43.2888 28.6998 2.63244
LeftLeg  80.1063 2.4611 18.9839
LeftFoot  -33.7197 -1.75472 -9.86321
LeftToes  -4.0021e-011 8.38769e-011 -3.99229e-011
182
root  1.56493 31.845 -33.4638 85.4711 -84.6816 -86.6599
RightUpLeg  -38.8201 -26.9714 -0.448159
RightLeg  71.2357 -2.77269 -9.96708
RightFoot  -22.0274 0.775795 9.8695
RightToes  -1.33073e-015 0 -3.6325e-017
Spine  33.2562 1.07285 3.20159
Spine1  -13.9932 1.94113 1.6211
HEad  -23.159 5.90219 -5.86793
LeftShoulder1  1.2791 12.4036 25.8381
LeftArm  -77.162 -5.65419 -13.6274
LeftForeArm  -15.6297 -69.4175 -35.8057
LeftHand  0.813069 7.531 41.2094
RightShoulder  0.0779658 -7.09069 -11.9227
RightArm  -79.3007 -9.37249 5.61291
RightForeArm  -31.9099 71.3789 41.6277
RightHand  -2.629 -0.309832 -55.8528
LeftUpLeg  -40.112 28.5252 2.54062
LeftLeg  78.3657 2.76362 17.3536
LeftFoot  -29.6919 -1.65106 -11.3352
LeftToes  -4.0021e-011 8.38769e-011 -3.99229e-011
183
root  1.03641 33.2368 -33.2762 86.3729 -86.7496 -88.4476
RightUpLeg  -33.2002 -27.1853 -3.96839
RightLeg  64.8401 -3.60855 -8.97677
RightFoot  -19.6696 0.578599 9.76294
RightToes  -1.33073e-015 0 -3.6325e-017
Spine  30.759 1.00649 2.30304
Spine1  -14.2841 1.60779 0.175883
HEad  -16.717 6.555 -4.54922
LeftShoulder1  0.517286 9.8562 18.7262
LeftArm  -68.376 -6.76473 -21.4124
LeftForeArm  18.1781 -77.099 -67.3255
LeftHand  0.822388 7.48014 42.4666
RightShoulder  -0.0848504 -5.72038 -5.13379
RightArm  -72.0726 -8.71412 13.4906
RightForeArm  6.06474 76.7211 68.2267
RightHand  -4.73619 4.15851 -53.958
LeftUpLeg  -36.3123 30.0153 2.64723
LeftLeg  75.0265 2.68763 12.7463
LeftFoot  -19.884 -0.924684 -14.2655
LeftToes  -4.0021e-011 8.38769e-011 -3.99229e-011
184
root  0.429011 35.0621 -32.9318 118.333 -88.44 -120.328
RightUpLeg  -27.0135 -26.6903 -7.02834
RightLeg  54.8496 -4.62441 -7.45329
RightFoot  -15.9699 0.296887 10.0179
RightToes  -1.33073e-015 0 -3.6325e-017
Spine  27.4234 0.722246 2.13276
Spine1  -14.6018 1.28401 -1.72938
HEad  -11.4497 7.64929 -4.8255
LeftShoulder1  -0.0746487 6.5056 5.9444
LeftArm  -57.7497 -4.06853 -24.0241
LeftForeArm  48.1644 -78.0948 -94.4673
LeftHand  0.901555 7.62012 43.5391
RightShoulder  -0.0485888 -3.96823 3.8736
RightArm  -65.4173 -9.65384 23.0403
RightForeArm  51.8686 77.9158 99.6045
RightHand  -5.68603 7.96898 -46.6911
LeftUpLeg  -32.0972 32.6759 3.41581
LeftLeg  69.7041 1.15805 4.56237
LeftFoot  -9.38471 0.379056 -18.7539
LeftToes  -4.0021e-011 8.38769e-011 -3.99229e-011
185
root  -0.193836 36.9301 -32.484 -171.811 -88.34 170.643
RightUpLeg  -20.7672 -25.907 -9.35679
RightLeg  42.48 -5.62986 -5.78472
RightFoot  -10.9058 -0.116357 10.6905
RightToes  -1.33073e-015 0 -3.6325e-017
Spine  24.0863 0.641085 2.23079
Spine1  -15.1955 1.2004 -3.05127
HEad  -7.55496 9.18477 -5.71439
LeftShoulder1  0.150005 2.67343 -9.84708
LeftArm  -50.5403 2.45621 -21.6331
LeftForeArm  54.2461 -78.0256 -97.95
LeftHand  0.860307 7.53659 43.1709
RightShoulder  0.400264 -1.51554 13.0949
RightArm  -61.2308 -13.3351 28.2069
RightForeArm  66.7838 77.7215 106.976
RightHand  -4.2513 8.20983 -35.4532
LeftUpLeg  -27.4765 34.5987 4.61108
LeftLeg  62.4486 -2.22059 -3.91024
LeftFoot  -3.38651 1.57188 -22.3408
LeftToes  -4.0021e-011 8.38769e-011 -3.99229e-011
186
root  -0.789051 38.5235 -32.0217 -141.997 -87.0382 142.037
RightUpLeg  -15.0742 -24.9228 -11.3884
RightLeg  29.8661 -6.90633 -4.50409
RightFoot  -4.65601 -0.736813 11.9394
RightToes  -1.33073e-015 0 -3.6325e-017
Spine  20.8288 1.03351 1.6014
Spine1  -15.8588 1.43728 -3.70369
HEad  -4.52711 10.4191 -5.5868
LeftShoulder1  1.07817 -0.369888 -22.0861
LeftArm  -47.5617 9.99973 -20.0765
LeftForeArm  46.8385 -78.1661 -89.544
LeftHand  0.406241 6.42795 41.2387
RightShoulder  1.08178 0.607708 20.2332
RightArm  -59.6196 -18.9992 29.7655
RightForeArm  63.0383 78.0504 101.741
RightHand  -3.292 7.49384 -29.3952
LeftUpLeg  -22.781 34.0499 5.53597
LeftLeg  53.3993 -4.11533 -5.66757
LeftFoot  -2.29986 1.81263 -22.4456
LeftToes  -4.0021e-011 8.38769e-011 -3.99229e-011
187
root  -1.26155 39.6415 -31.5692 -130.154 -85.8759 131.078
RightUpLeg  -10.4749 -23.0307 -13.4055
RightLeg  19.636 -9.03382 -3.64356
RightFoot  1.94867 -1.58616 13.6595
RightToes  -1.33073e-015 0 -3.6325e-017
Spine  17.5712 1.5169 0.735927
Spine1  -15.2079 1.82443 -4.65507
HEad  -3.11663 10.8067 -4.46932
LeftShoulder1  1.58163 -1.41964 -26.136
LeftArm  -47.5886 15.7843 -23.533
LeftForeArm  40.2544 -78.071 -84.6468
LeftHand  -0.178173 4.83777 38.5322
RightShoulder  1.37502 1.23872 22.932
RightArm  -59.6052 -23.7146 31.85
RightForeArm  69.3645 78.1757 102.809
RightHand  -2.7431 10.4216 -20.4954
LeftUpLeg  -18.1279 30.6501 6.43571
LeftLeg  43.4468 1.18717 1.40497
LeftFoot  -1.58662 1.54219 -18.0481
LeftToes  -4.0021e-011 8.38769e-011 -3.99229e-011
